<svg id="Layer_1" xmlns="http://www.w3.org/2000/svg" viewBox="0 0 193 120.3"><style>.st0{fill:#010101;} .st1{fill:#1086A1;}</style><path class="st0" d="M85.5 82.4c-1.6-1.4-3.1-2.4-4.7-3.1-1.6-.6-3.2-.9-5-.9-3.7 0-7 1.3-9.7 3.9-2 1.9-3.3 4.2-3.9 6.8-.7-2.4-2-4.5-3.7-6.2-3-3-6.9-4.5-11.8-4.5-4.6 0-8.3 1.5-11.4 4.5-2 1.9-3.2 4.1-3.9 6.6-.6-2.6-1.9-4.8-3.6-6.7-2.8-2.9-6.2-4.4-10.3-4.4-1.9 0-3.5.3-5.2 1s-3.1 1.7-4.6 3v-3.3H0v40.4h7.7v-14c1.6 1.4 3 2.4 4.6 3s3.2.9 5 .9c3.9 0 7.4-1.5 10.3-4.4 1.9-1.9 3.1-4.1 3.7-6.6.7 2.5 2 4.7 3.9 6.6 3 2.9 6.9 4.4 11.8 4.4 3.1 0 5.8-.5 8.1-1.6s4.1-2.7 5.8-4.9l-6.5-2.9c-2.1 1.9-4.6 2.9-7.5 2.9-2.4 0-4.4-.6-5.9-1.9-1.6-1.2-2.5-2.9-2.9-5h23.6c.4 3.3 1.8 6.1 4 8.4 2.8 2.9 6.3 4.3 10.5 4.3 1.9 0 3.5-.3 5.1-.9 1.5-.6 2.9-1.5 4.2-2.8 0 2.4-.2 4.1-.7 5.1-.5 1-1.5 1.8-2.7 2.4-1.2.6-2.9.9-5 .9-1.7 0-3-.2-4.2-.6-1.1-.4-2.2-1.1-2.9-1.9h-8.5c.7 2 1.8 3.7 3.1 5.1 1.5 1.4 3.1 2.5 5.2 3.2 2.1.7 4.6 1.1 7.6 1.1 5.6 0 9.8-1.6 12.6-4.8 2.1-2.4 3.1-6 3.1-11V79.2h-7.7v3.2h.1zm-63.8 17.8c-1.7 1.7-3.6 2.5-5.9 2.5-2.4 0-4.5-.8-6-2.4s-2.4-3.7-2.4-6.4c0-2.6.8-4.7 2.4-6.3 1.6-1.6 3.6-2.4 6-2.4s4.4.8 6 2.4c1.6 1.6 2.4 3.7 2.4 6.2-.1 2.7-.9 4.8-2.5 6.4zm16.7-9.9c.8-1.8 1.8-3.1 2.8-3.8 1.7-1.2 3.5-1.7 5.7-1.7 2 0 3.7.5 5.2 1.6 1.5 1 2.5 2.4 3 4l-16.7-.1zm45.2 9.4c-1.6 1.5-3.5 2.3-5.9 2.3-2.5 0-4.5-.8-6.1-2.4-1.7-1.6-2.4-3.6-2.4-6.1 0-2.4.8-4.3 2.4-5.9s3.6-2.4 6-2.4c2.5 0 4.5.8 6 2.3s2.4 3.5 2.4 6c-.1 2.7-.8 4.7-2.4 6.2zm29.6-21.3c-1.5 0-2.9.3-4.4.8-1.5.6-3 1.5-4.8 3v-3h-7.7v29.6h7.7V96.9c0-3.1.1-5.1.3-6 .4-1.8 1.2-3.2 2.3-4.2 1.1-1 2.5-1.5 4-1.5 1.2 0 2.2.3 3 .9.8.6 1.3 1.5 1.8 2.6.3 1.2.5 3.5.5 7v13h7.7V89.2c0-3.4-.9-6-2.7-7.7-2.1-2.1-4.6-3.1-7.7-3.1zm13.4-10.7v41h7.7v-41h-7.7z"/><path class="st1" d="M180.2 83.3l-4.6-4.7.6 7.4-15.1-16.6-9.5-10 12.2 36.5H193l-12.8-12.6zM97.6 0l16.3 49.2-9.5-9.3-6.9-7.4 2.4 26.8H152l-38.9-43L97.6 0z"/></svg>